<?xml version="1.0" encoding="utf-8"?>
<!-- Generator: Adobe Illustrator 16.0.3, SVG Export Plug-In . SVG Version: 6.00 Build 0)  -->
<!DOCTYPE svg PUBLIC "-//W3C//DTD SVG 1.1//EN" "http://www.w3.org/Graphics/SVG/1.1/DTD/svg11.dtd">
<svg version="1.1" id="Warstwa_1" xmlns="http://www.w3.org/2000/svg" xmlns:xlink="http://www.w3.org/1999/xlink" x="0px" y="0px"
	 width="698.963px" height="392.492px" viewBox="0 0 698.963 392.492" enable-background="new 0 0 698.963 392.492"
	 xml:space="preserve">
<g>
	<path fill="#FFFFFF" d="M84.919,334.955c-2.785,8.494-7.599,14.959-14.436,19.39c-6.839,4.431-16.271,6.645-28.292,6.645
		c-3.586,0-6.275-0.407-8.068-1.22c-1.791-0.811-3.018-2.24-3.681-4.29c-0.66-2.047-0.992-5.146-0.992-9.295v-86.144
		c0-4.093,0.331-7.179,0.992-9.254c0.663-2.072,1.875-3.519,3.641-4.332c1.765-0.813,4.411-1.22,7.941-1.22
		c11.582,0,20.807,2.06,27.672,6.181c6.865,4.125,11.815,10.349,14.849,18.678c3.034,8.326,4.55,19.109,4.55,32.344
		C89.095,315.619,87.702,326.457,84.919,334.955z M46.243,242.125c-1.488,0-10.01,0.168-25.561,0.504l-4.136,0.084
		c-4.964,0-10.48-0.195-16.546-0.588v3.448c4.08,0.169,7.044,0.618,8.893,1.347c1.847,0.729,3.114,2.076,3.805,4.039
		c0.688,1.961,1.034,5.102,1.034,9.418v85.472c0,4.317-0.345,7.458-1.034,9.42c-0.691,1.965-1.958,3.31-3.805,4.04
		c-1.85,0.729-4.813,1.178-8.893,1.345v3.45c4.743-0.336,11.746-0.505,21.011-0.505c2.649,0,6.879,0.085,12.701,0.252
		c5.817,0.169,9.497,0.253,11.044,0.253c12.792,0,23.796-2.566,33.007-7.699c9.211-5.13,16.226-12.393,21.054-21.787
		c4.825-9.392,7.239-20.344,7.239-32.85c0-19.46-4.978-34.268-14.931-44.417C81.168,247.199,66.209,242.125,46.243,242.125z"/>
	<path fill="#FFFFFF" d="M200.431,334.28c-2.978,9.168-7.21,16.32-12.699,21.451c-5.488,5.133-11.845,7.697-19.067,7.697
		c-6.95,0-13.279-2.466-18.988-7.401c-5.708-4.934-10.216-11.945-13.525-21.033c-3.307-9.086-4.961-19.599-4.961-31.547
		c0-11.831,1.488-22.332,4.465-31.503c2.978-9.168,7.225-16.319,12.741-21.45c5.514-5.134,11.883-7.699,19.11-7.699
		c6.95,0,13.265,2.47,18.945,7.406c5.678,4.936,10.174,11.943,13.483,21.029s4.964,19.6,4.964,31.545
		C204.899,314.611,203.411,325.109,200.431,334.28z M196.419,247.085c-8.08-4.933-17.495-7.402-28.25-7.402
		c-10.426,0-19.718,2.693-27.878,8.078c-8.165,5.382-14.534,12.955-19.11,22.713c-4.581,9.758-6.867,20.977-6.867,33.648
		c0,12.955,2.221,24.129,6.658,33.523c4.439,9.395,10.701,16.561,18.781,21.493c8.078,4.937,17.495,7.403,28.25,7.403
		c10.423,0,19.716-2.693,27.878-8.076c8.163-5.385,14.532-12.957,19.11-22.715c4.578-9.758,6.868-20.975,6.868-33.648
		c0-12.954-2.221-24.13-6.658-33.521C210.758,259.188,204.497,252.023,196.419,247.085z"/>
	<path fill="#FFFFFF" d="M328.418,242.626l-36.4,99.435l-37.228-99.937c-3.695,0.332-8.52,0.502-14.476,0.502
		c-6.785,0-12.023-0.168-15.718-0.502v3.447c4.08,0.17,7.043,0.618,8.893,1.348c1.848,0.729,3.114,2.074,3.805,4.037
		c0.689,1.963,1.034,5.103,1.034,9.42v83.703c0,4.431-0.359,7.769-1.077,10.01c-0.714,2.244-2.025,3.856-3.929,4.837
		c-1.901,0.981-4.811,1.559-8.727,1.726v3.45c3.751-0.336,8.99-0.505,15.718-0.505c7.5,0,13.263,0.169,17.289,0.505v-3.45
		c-4.465-0.167-7.763-0.742-9.885-1.726c-2.125-0.98-3.572-2.593-4.341-4.837c-0.775-2.242-1.161-5.579-1.161-10.01v-90.938
		l42.688,111.801h2.731l40.783-111.295v92.2c0,4.317-0.345,7.458-1.036,9.42c-0.688,1.965-1.943,3.31-3.761,4.04
		c-1.821,0.729-4.773,1.178-8.854,1.345v3.45c4.743-0.336,11.968-0.505,21.675-0.505c9.046,0,16.214,0.169,21.509,0.505v-3.45
		c-4.084-0.167-7.043-0.616-8.896-1.345c-1.847-0.73-3.113-2.075-3.803-4.04c-0.693-1.962-1.034-5.103-1.034-9.42v-85.472
		c0-4.316,0.341-7.457,1.034-9.418c0.688-1.963,1.956-3.311,3.803-4.039c1.853-0.729,4.812-1.176,8.896-1.347v-3.448
		c-5.295,0.334-12.463,0.504-21.509,0.504h-8.023V242.626z"/>
	<path fill="#FFFFFF" d="M607.602,305.708l-0.263-0.959c-0.287-1.076-0.583-2.22-0.879-3.392
		c9.608,3.734,19.046,10.545,23.998,21.373c4.195,9.215,3.72,21.642-1.159,30.228c-0.729,1.285-1.539,2.453-2.423,3.518
		C616.432,339.648,611.371,319.71,607.602,305.708z M609.851,362.873c-18.374-3.326-25.039-23.115-33.281-66.047
		c0.933,0.063,1.845,0.115,2.748,0.174c4.944,0.304,9.227,0.576,12.548,0.871c2.376,0.203,4.921,0.619,7.532,1.256
		c0.717,2.471,1.405,4.81,1.952,6.832l0.783,2.947c3.734,13.857,9.177,34.506,19.749,51.905
		C618.397,362.887,614.317,363.684,609.851,362.873z M575.14,289.255c-7.586-40.877-40.03-50.916-60.591-48.158
		c-5.58,0.451-15.183,1.529-23.493,1.529c-1.487,0-2.896-0.004-4.266-0.012c4.19-1.68,8.099-3.863,11.544-6.49
		c2.783-2.123,4.926-4.85,7.363-7.16c15.827-14.986,68.498-18.176,90.992,60.078c0.704,2.443,1.252,4.992,1.94,7.414
		c-2.24-0.488-4.428-0.838-6.492-1.021c-3.344-0.301-7.636-0.566-12.6-0.87l-3.434-0.219
		C575.784,292.676,575.462,290.988,575.14,289.255z M541.743,296.183c-4.788,0.244-9.216,0.311-12.889,0.064
		c-9.57-0.639-13.675-5.812-15.269-8.838c-1.612-3.061-2.073-6.496-1.234-9.201c0.574-1.832,2.479-5.274,6.015-6.551
		c3.729-1.34,8.229,0.233,13.009,4.576C536.913,281.253,540.448,288.199,541.743,296.183z M543.825,296.067
		c-1.922-8.812-5.805-16.853-11.268-21.808c-6.695-6.068-11.718-6.047-14.75-4.952c-3.747,1.351-6.376,5.003-7.309,8.021
		c-1.072,3.435-0.543,7.701,1.417,11.41c1.798,3.42,6.383,9.256,16.825,9.953c3.801,0.259,8.384,0.189,13.32-0.075
		c0.374,3.646,2.104,15.037,1.361,22.173c-2.87,27.592-19.956,37.027-30.116,39.893c-5.848,0.287-7.796-0.648-9.639-1.375
		c-1.847-0.73-3.116-2.075-3.805-4.04c-0.691-1.962-1.034-5.103-1.034-9.42v-85.472c0-4.316,0.343-7.457,1.034-9.418
		c0.688-1.964,1.958-3.311,3.805-4.039c1.326-0.521,4.268-1.636,7.328-2.287c18.962-1.959,49.466,6.068,57.304,47.195
		c0.129,0.689,0.261,1.354,0.388,2.029C562.221,294.608,560.273,294.467,543.825,296.067z M365.134,112.581l-1.927-4.033
		c-9.164-18.971-22.586-47.25-44.069-70.23c5.488-3.415,12.247-5.119,19.971-4.616c31.832,2.068,47.161,28.965,69.896,88.203
		c-1.586,0.054-3.152,0.104-4.684,0.15c-8.454,0.275-15.756,0.503-21.455,0.564c-4.078,0.042-8.468-0.181-13.02-0.695
		C368.121,118.539,366.474,115.353,365.134,112.581z M312.383,93.121c-9-12.364-10.733-29.918-4.212-42.699
		c0.977-1.906,2.113-3.666,3.387-5.29c21.144,22.195,33.787,49.526,43.031,68.688l0.645,1.321c0.707,1.469,1.442,3.034,2.183,4.644
		C340.363,115.896,322.973,107.658,312.383,93.121z M221.868,161.882c-2.811,9.032-6.357,17.486-10.632,25.366
		c-4.273,7.878-8.602,14.162-12.988,18.843c-4.383,4.683-8.202,7.022-11.458,7.022c-4.961,0-7.445-4.991-7.445-14.976
		c0-9.363,1.861-19.472,5.584-30.323c3.723-10.854,8.646-19.994,14.767-27.427c6.123-7.429,12.604-11.145,19.441-11.145
		c2.04,0,3.873,0.714,5.504,2.143c1.624,1.432,2.797,3.631,3.514,6.607L221.868,161.882z M271.717,167.941
		c3.086-11.215,7.208-20.555,12.367-28.015c5.157-7.458,10.63-11.186,16.421-11.186c3.253,0,5.667,1.203,7.236,3.615
		c1.572,2.411,2.359,6.2,2.359,11.356c0,10.376-1.544,21.159-4.632,32.346c-3.091,11.189-7.199,20.513-12.327,27.973
		c-5.13,7.458-10.588,11.188-16.381,11.188c-6.451,0-9.678-4.992-9.678-14.973C267.082,189.926,268.623,179.159,271.717,167.941z
		 M476.702,125.947c16.264,1.896,22.833,9.615,25.301,14.047c2.5,4.479,3.001,9.377,1.342,13.107
		c-1.126,2.526-4.665,7.182-10.797,8.611c-6.466,1.511-14.01-1.185-21.808-7.796c-9.027-7.655-14.487-17.813-16.034-29.209
		C462.892,124.856,470.451,125.224,476.702,125.947z M697.527,347.73c-3.063-10.595-10.823-17.613-21.862-19.759
		c-0.541-0.112-1.079,0.351-1.194,1.013c-0.12,0.663,0.211,1.288,0.759,1.391c10.33,2.008,17.568,8.504,20.395,18.291
		c2.409,8.348,1.146,18.383-3.124,24.982c-6.315,9.756-19.225,22.316-45.315,4.666c-7.816-5.295-14.041-12.229-19.067-19.893
		c1.018-1.283,1.965-2.678,2.806-4.164c5.311-9.346,5.845-22.838,1.297-32.809c-5.438-11.925-15.996-19.197-26.466-22.962
		c-0.759-3.14-1.479-6.526-2.362-10.024c-22.012-86.849-83.391-76.176-100.339-61.68c-8.43,7.209-16.799,13.586-29.178,14.85
		c-10.64,1.082-27.336-2.162-44.034-17.256c-22.875-20.68-40.142-58.249-53.353-88.65c-1.481-3.408-3.143-6.846-4.802-10.158
		c3.899,0.369,7.682,0.547,11.211,0.507c5.738-0.054,13.053-0.284,21.527-0.562c1.922-0.063,3.896-0.12,5.878-0.186
		c0.883,2.306,1.768,4.637,2.665,7.027c25.608,68.157,74.296,86.353,103.936,75.683c23.031-8.285,29.479-26.699,31.271-36.93
		c2.773-15.831-1.836-33.43-10.727-40.93c-0.728-0.613-1.801-0.51-2.402,0.226c-0.602,0.736-0.498,1.829,0.229,2.436
		c8.012,6.773,12.125,22.959,9.549,37.66c-1.662,9.49-7.647,26.572-29.057,34.278c-28.135,10.12-66.572-11.168-91.723-77.018
		c-0.362-0.952-0.719-1.864-1.076-2.794c9.457-0.251,19.131-0.4,28.175-0.311c2.558,12.621,8.511,24.37,17.417,31.923
		c10.925,9.255,19.486,9.737,24.746,8.513c6.496-1.518,11.284-6.397,13.142-10.56c2.104-4.73,1.551-10.809-1.479-16.247
		c-2.785-5.004-10.118-13.707-27.881-15.775c-6.461-0.752-14.278-1.128-22.72-1.269c-0.34-5.18,0.089-10.579,1.349-16.102
		c11.544-50.488,58.333-54.763,66.517-54.014l2.716-1.943c-9.321-1.643-18.955-1.53-28.438,0.792
		c-20.642,5.048-40.695,22.614-45.679,48.702c-1.387,7.257-1.435,14.983-0.299,22.513c-9.31-0.078-19.232,0.087-28.885,0.348
		c-27.292-70.12-45.271-92.513-82.752-93.406c-8.897-0.214-16.541,2.517-22.645,7.182c-10.997-11.133-23.984-20.809-39.47-27.239
		c-37.085-15.41-67.445-8.902-83.73,20.71c-6.205,11.286-5.847,26.081,0.547,38.697c6.701,13.208,19.437,21.646,36.147,24.128
		c0.129,0.101,0.343,0.164,0.719,0.164c0.211,0,0.383,0.031,0.585,0.038c0.665,0.084,1.349,0.143,2.031,0.209
		c3.833,0.679,5.415,2.759,5.415,4.667c0,1.292-0.247,2.832-0.745,4.625l-8.44,32.219c-0.822-2.578-2.204-4.599-4.134-6.054
		c-1.932-1.459-4-2.188-6.205-2.188c-9.874,0-19,3.826-27.383,11.483c-8.383,7.652-15.03,17.048-19.937,28.179
		c-1.565,3.549-2.851,7.006-3.918,10.386c-0.16,0.348-0.294,0.745-0.393,1.206c-0.012,0.049-0.028,0.099-0.038,0.148
		c-0.454,1.525-0.863,3.037-1.215,4.529c-5.229,16.996-17.907,31.051-25.171,31.051c-2.703,0-4.052-1.6-4.052-4.794
		c0-0.322,0.045-0.688,0.075-1.041c0.186-1.333,0.534-2.931,1.076-4.847l21.014-76.3c-3.861,1.401-9.018,2.188-15.469,2.355
		l-2.564,10.264c-3.864,14.468-8.344,27.425-13.446,38.863c-5.1,11.441-10.287,20.357-15.552,26.751
		c-5.267,6.394-10.052,9.591-14.353,9.591c-3.586,0-5.377-1.962-5.377-5.887c0-2.357,0.552-5.217,1.654-8.581l16.132-49.296
		c1.819-5.777,2.729-10.235,2.729-13.375c0-7.121-3.97-10.684-11.911-10.684c-2.496,0-4.799,0.404-6.914,1.196l-0.002,0.016
		c-1.175,0.36-2.36,0.807-3.584,1.366c-3.744,1.711-9.192,6.386-14.715,11.761c-0.056-2.841-0.865-5.344-2.46-7.483
		c-1.655-2.214-3.876-3.911-6.661-5.088c-2.785-1.177-5.862-1.767-9.222-1.767c-9.927,0-18.781,3.659-26.558,10.978
		c-7.774,7.318-13.815,16.332-18.116,27.047c-4.303,10.71-6.454,20.722-6.454,30.029c0,8.246,1.986,14.529,5.958,18.847
		c3.972,4.317,9.429,6.476,16.379,6.476c4.576,0,9.058-1.094,13.443-3.279c4.385-2.186,8.341-5.034,11.871-8.539
		c3.528-3.506,6.454-7.279,8.769-11.316l-3.391-1.347c-7.777,11.498-16.242,17.246-25.399,17.246c-3.749,0-6.672-1.356-8.766-4.08
		c-2.099-2.72-3.145-6.884-3.145-12.491c0-11.274,1.779-22.013,5.337-32.222c3.556-10.205,8.134-18.405,13.73-24.604
		c5.598-6.195,11.237-9.293,16.919-9.293c5.239,0,9.07,1.765,11.497,5.3c-3.474,0.618-6.465,2.115-8.976,4.5
		c-2.51,2.383-3.763,5.201-3.763,8.454c0,1.906,0.592,3.506,1.779,4.794c1.184,1.29,2.907,1.934,5.168,1.934
		c2.372,0,4.482-0.672,6.329-2.019c1.396-1.018,2.55-2.261,3.457-3.728c7.164-9.507,16.292-15.946,20.992-16.358
		c0.08-0.004,0.16-0.019,0.242-0.019c0.059-0.002,0.108,0.007,0.162,0.007c2.569,0.04,3.857,1.436,3.857,4.198
		c0,1.511-0.442,3.673-1.323,6.477l-16.379,50.307c-1.655,4.936-2.482,9.2-2.482,12.786c0,8.862,4.769,13.291,14.311,13.291
		c4.907,0,9.5-1.5,13.775-4.502c4.273-2.998,8.522-7.85,12.738-14.555c4.221-6.698,8.593-15.603,13.114-26.706l-5.379,21.62
		c-1.598,6.391-2.397,11.105-2.397,14.132c0,2.134,0.332,3.899,0.992,5.3c0.066,0.125,0.148,0.23,0.216,0.351l-0.012,0.009
		c0.026,0.045,0.066,0.078,0.092,0.12c0.348,0.576,0.74,1.11,1.215,1.574l0.031-0.02c1.812,1.774,4.411,2.675,7.812,2.675
		c4.026,0,9.432-1.758,13.251-4.08c4.39-2.666,10.529-10.095,16.101-17.692c0.139,7.053,1.676,12.417,4.649,16.052
		c3.114,3.814,7.432,5.721,12.945,5.721c6.179,0,11.996-2.578,17.458-7.74c5.458-5.155,10.863-13.514,16.214-25.067l-2.233,8.666
		c-1.438,5.833-2.152,10.294-2.152,13.373c0,3.481,0.909,6.144,2.73,7.993c1.819,1.852,4.466,2.775,7.942,2.775
		c4.026,0,9.429-1.758,13.25-4.08c4.762-2.894,11.587-11.395,17.514-19.637c0.468,7.266,2.496,12.887,6.094,16.861
		c4.136,4.57,9.814,6.855,17.042,6.855c9.871,0,18.518-3.603,25.935-10.809c7.417-7.206,13.096-16.01,17.042-26.415
		c3.94-10.404,5.916-20.118,5.916-29.15c0-8.917-2.055-15.646-6.165-20.188c-4.108-4.545-9.775-6.813-17-6.813
		c-9.873,0-18.532,3.589-25.975,10.769c-7.446,7.177-13.143,15.967-17.084,26.37c-1.967,5.187-3.438,10.203-4.426,15.043
		c-4.371,18.633-18.397,34.8-26.188,34.8c-2.703,0-4.052-1.6-4.052-4.794c0-1.626,0.329-3.589,0.992-5.888l33.171-122.318
		c-4.468,2.304-8.75,5.161-13.49,6.341c-4.656,1.154-10.955,2.357-19.023,1.676c-13.222-3.103-23.274-10.501-28.795-21.392
		c-5.782-11.396-5.702-25.7,0.19-35.597c8.715-14.626,28.034-34.14,75.861-13.011c14.336,6.339,26.287,15.207,36.384,25.279
		c-1.471,1.949-2.785,4.04-3.913,6.256c-7.088,13.906-5.245,32.969,4.498,46.352c11.655,16,31.026,24.743,49.548,28.542
		c1.935,4.315,3.953,8.94,6.058,13.775c13.337,30.713,32.292,72.095,57.092,92.933c2.815,2.363,5.701,4.371,8.597,6.119
		c3.879,3.772,7.229,8.771,7.097,15.25c-0.073,3.535-2.896,9.031-8.688,16.488l-16.214,21.032
		c-4.688,6.113-11.14,9.335-19.359,9.674v-38.614c0-4.317,0.344-7.459,1.034-9.42c0.688-1.963,1.958-3.31,3.806-4.037
		c1.85-0.729,4.811-1.178,8.894-1.348v-3.447c-5.185,0.332-12.354,0.502-21.507,0.502c-9.763,0-16.988-0.168-21.677-0.502v3.447
		c4.083,0.169,7.046,0.618,8.894,1.348c1.847,0.729,3.114,2.074,3.809,4.037c0.688,1.963,1.03,5.103,1.03,9.42v85.471
		c0,4.316-0.343,7.458-1.03,9.42c-0.693,1.965-1.96,3.309-3.809,4.04c-1.848,0.729-4.811,1.178-8.894,1.345v3.45
		c4.745-0.336,11.968-0.505,21.677-0.505c9.151,0,16.322,0.169,21.507,0.505v-3.45c-4.083-0.167-7.044-0.615-8.894-1.345
		c-1.848-0.731-3.116-2.075-3.806-4.04c-0.69-1.962-1.034-5.104-1.034-9.42v-43.409c2.813,0.169,5.089,0.576,6.825,1.22
		c1.736,0.646,3.435,1.811,5.088,3.493c1.652,1.683,3.612,4.289,5.874,7.824l24.736,37.94c1.159,1.681,1.737,3.055,1.737,4.121
		c0,1.176-0.636,2.045-1.901,2.606c-1.27,0.562-3.227,0.897-5.875,1.009v3.45c5.514-0.336,11.335-0.505,17.455-0.505
		c8.163,0,14.919,0.169,20.27,0.505v-3.45c-3.423-0.839-6.287-2.076-8.604-3.701c-2.315-1.627-4.412-3.896-6.287-6.813
		l-39.296-56.025l27.634-36.005c3.029-3.98,6.188-6.926,9.473-8.835c2.605-1.515,5.367-2.585,8.271-3.25
		c5.161,0.558,9.751,0.479,13.366,0.112c0.46-0.047,0.912-0.127,1.37-0.188c1.812,0.235,3.3,0.55,4.364,0.974
		c1.848,0.729,3.114,2.074,3.808,4.037c0.688,1.963,1.032,5.103,1.032,9.42v85.471c0,4.316-0.344,7.458-1.032,9.42
		c-0.693,1.965-1.96,3.309-3.808,4.04c-1.848,0.729-4.811,1.178-8.894,1.345v3.45c4.745-0.336,11.968-0.505,21.676-0.505
		c7.662,0,14.309,0.637,19.562,0.412c2.505,0.072,5.354-0.449,10.862-2.499c11.896-4.425,22.525-20.649,24.246-39.329
		c0.717-7.795-0.499-18.419-1.422-23.692c15.456-0.881,18.503-1.79,24.863-2.144c9.986,50.836,18.563,67.615,40.34,70.451
		c5.166,0.677,9.85-0.793,13.81-3.707c5.465,8.466,12.22,16.024,20.696,21.449c20.309,13.01,38.567,10.228,50.559-9.604
		C699.137,367.376,700.18,356.972,697.527,347.73z"/>
</g>
</svg>
